<?xml version="1.0" standalone="no"?>
<!DOCTYPE svg PUBLIC "-//W3C//DTD SVG 20010904//EN"
 "http://www.w3.org/TR/2001/REC-SVG-20010904/DTD/svg10.dtd">
<svg version="1.0" xmlns="http://www.w3.org/2000/svg"
 width="198.000000pt" height="198.000000pt" viewBox="0 0 198.000000 198.000000"
 preserveAspectRatio="xMidYMid meet">
<metadata>
Created by potrace 1.14, written by Peter Selinger 2001-2017
</metadata>
<g transform="translate(0.000000,198.000000) scale(0.100000,-0.100000)"
fill="#000000" stroke="none">
<path d="M0 990 l0 -990 990 0 990 0 0 990 0 990 -990 0 -990 0 0 -990z m1150
220 c85 -171 157 -315 158 -320 2 -6 -115 -10 -318 -10 -203 0 -320 4 -318 10
9 27 314 630 318 630 3 0 75 -140 160 -310z m-390 -507 l0 -47 28 27 c41 39
72 35 36 -4 -14 -16 -14 -20 0 -48 19 -37 20 -41 3 -41 -8 0 -20 11 -27 25
-10 19 -16 22 -27 14 -7 -6 -13 -18 -13 -25 0 -8 -7 -14 -15 -14 -12 0 -15 16
-15 80 0 64 3 80 15 80 11 0 15 -12 15 -47z m580 16 c0 -26 2 -29 15 -19 35
29 71 -13 63 -76 -5 -46 -26 -41 -30 8 -2 35 -7 43 -23 43 -16 0 -21 -8 -23
-42 -2 -29 -8 -43 -18 -43 -11 0 -14 17 -14 80 0 64 3 80 15 80 10 0 15 -10
15 -31z m-906 5 c32 -32 10 -74 -39 -74 -32 0 -35 -2 -35 -30 0 -20 -5 -30
-15 -30 -12 0 -15 15 -15 75 l0 75 44 0 c27 0 51 -6 60 -16z m611 -14 c24 0
28 -21 5 -27 -17 -4 -20 -12 -18 -37 2 -17 9 -32 16 -32 24 -3 26 -4 15 -15
-7 -7 -23 -9 -37 -5 -23 6 -26 12 -26 46 0 22 -4 40 -10 40 -16 0 -12 14 12
40 20 21 23 22 26 7 2 -9 10 -17 17 -17z m225 15 c17 -21 4 -32 -20 -17 -28
17 -37 15 -56 -13 -23 -35 -6 -75 31 -75 14 0 25 5 25 10 0 6 7 10 15 10 22 0
19 -27 -4 -40 -48 -25 -111 10 -111 62 0 22 18 60 34 70 19 13 73 9 86 -7z
m360 -20 c7 0 15 -6 18 -12 2 -8 -5 -13 -17 -13 -31 0 -30 -57 2 -69 21 -8 21
-9 3 -17 -29 -11 -51 9 -54 50 -2 20 -7 36 -13 36 -15 0 -10 15 13 40 21 22
22 22 28 4 4 -10 13 -19 20 -19z m-1070 -15 c24 -24 25 -48 4 -78 -31 -44
-104 -16 -104 40 0 24 35 58 60 58 11 0 29 -9 40 -20z m128 8 c20 -20 14 -28
-20 -26 -27 3 -34 -1 -36 -18 -4 -29 23 -51 43 -34 22 19 41 7 21 -13 -36 -36
-96 -8 -96 44 0 44 59 76 88 47z m262 -8 c33 -33 26 -50 -20 -50 -22 0 -40 -5
-40 -10 0 -17 29 -23 44 -11 11 9 16 9 21 0 16 -24 -40 -38 -76 -19 -40 22
-14 110 33 110 10 0 27 -9 38 -20z m571 10 c14 -8 19 -21 19 -50 0 -22 5 -40
10 -40 6 0 10 -4 10 -9 0 -15 -98 -10 -111 5 -15 18 2 39 36 48 37 9 32 30 -5
23 -32 -7 -38 1 -18 21 15 15 33 15 59 2z m-304 -227 c-3 -10 -5 -4 -5 12 0
17 2 24 5 18 2 -7 2 -21 0 -30z m120 15 c-3 -8 -6 -5 -6 6 -1 11 2 17 5 13 3
-3 4 -12 1 -19z m-524 -22 c-3 -4 -9 -2 -14 5 -13 22 -11 31 5 17 8 -7 12 -17
9 -22z m184 12 c-3 -8 -6 -5 -6 6 -1 11 2 17 5 13 3 -3 4 -12 1 -19z m-320 6
c-3 -3 -12 -4 -19 -1 -8 3 -5 6 6 6 11 1 17 -2 13 -5z m290 -16 c-3 -8 -6 -5
-6 6 -1 11 2 17 5 13 3 -3 4 -12 1 -19z m147 6 c3 -8 2 -12 -4 -9 -6 3 -10 10
-10 16 0 14 7 11 14 -7z m216 -7 c11 -5 9 -6 -4 -4 -11 1 -21 9 -23 17 -3 10
-2 11 4 4 4 -6 15 -14 23 -17z m-653 -3 c-3 -3 -12 -4 -19 -1 -8 3 -5 6 6 6
11 1 17 -2 13 -5z m230 0 c-3 -3 -12 -4 -19 -1 -8 3 -5 6 6 6 11 1 17 -2 13
-5z"/>
<path d="M864 1170 l-120 -240 247 0 248 0 -17 30 -17 30 -177 0 c-98 0 -178
2 -178 5 0 10 135 275 140 275 3 0 25 -38 48 -85 l42 -85 -65 0 c-62 0 -65 -1
-80 -30 l-16 -30 131 0 130 0 -92 185 c-51 102 -95 185 -98 185 -3 0 -60 -108
-126 -240z"/>
<path d="M360 695 c0 -20 5 -25 24 -25 31 0 41 26 16 40 -30 16 -40 12 -40
-15z"/>
<path d="M496 664 c-7 -19 11 -57 26 -52 19 7 32 34 25 52 -8 21 -43 21 -51 0z"/>
<path d="M890 670 c0 -5 12 -10 26 -10 14 0 23 4 19 10 -3 6 -15 10 -26 10
-10 0 -19 -4 -19 -10z"/>
<path d="M1481 631 c-9 -6 -10 -11 -2 -15 13 -8 31 1 31 15 0 11 -11 11 -29 0z"/>
</g>
</svg>
